<svg xmlns="http://www.w3.org/2000/svg" width="1400" height="520" viewBox="0 0 1400 520">
  <defs>
    <linearGradient id="bgp" x1="0" y1="0" x2="1" y2="1">
      <stop offset="0" stop-color="#0f172a"/>
      <stop offset="1" stop-color="#101827"/>
    </linearGradient>
    <linearGradient id="accp" x1="0" y1="0" x2="1" y2="1">
      <stop offset="0" stop-color="#62f0b7"/>
      <stop offset="1" stop-color="#7aa2ff"/>
    </linearGradient>
  </defs>
  <rect width="1400" height="520" fill="url(#bgp)"/>
  <rect x="60" y="70" width="380" height="360" rx="18" fill="#0b1220" stroke="url(#accp)" stroke-width="3"/>
  <rect x="510" y="70" width="380" height="360" rx="18" fill="#0b1220" stroke="url(#accp)" stroke-width="3"/>
  <rect x="960" y="70" width="380" height="360" rx="18" fill="#0b1220" stroke="url(#accp)" stroke-width="3"/>

  <text x="90" y="110" fill="#e5e7eb" font-family="Space Grotesk, Arial" font-size="20">Node A</text>
  <text x="540" y="110" fill="#e5e7eb" font-family="Space Grotesk, Arial" font-size="20">Node B</text>
  <text x="990" y="110" fill="#e5e7eb" font-family="Space Grotesk, Arial" font-size="20">Node C</text>

  <g fill="#111827" stroke="#7aa2ff" stroke-width="2">
    <rect x="100" y="140" width="300" height="60" rx="10"/>
    <rect x="100" y="220" width="300" height="60" rx="10"/>
    <rect x="100" y="300" width="300" height="60" rx="10"/>
    <rect x="550" y="140" width="300" height="60" rx="10"/>
    <rect x="550" y="220" width="300" height="60" rx="10"/>
    <rect x="550" y="300" width="300" height="60" rx="10"/>
    <rect x="1000" y="140" width="300" height="60" rx="10"/>
    <rect x="1000" y="220" width="300" height="60" rx="10"/>
    <rect x="1000" y="300" width="300" height="60" rx="10"/>
  </g>

  <text x="140" y="178" fill="#e5e7eb" font-family="Space Grotesk, Arial" font-size="16">Sensors (I2S / Camera)</text>
  <text x="140" y="258" fill="#e5e7eb" font-family="Space Grotesk, Arial" font-size="16">Feature Extraction</text>
  <text x="140" y="338" fill="#e5e7eb" font-family="Space Grotesk, Arial" font-size="16">TFLM Inference</text>

  <text x="590" y="178" fill="#e5e7eb" font-family="Space Grotesk, Arial" font-size="16">Sensors</text>
  <text x="590" y="258" fill="#e5e7eb" font-family="Space Grotesk, Arial" font-size="16">Local Decision</text>
  <text x="590" y="338" fill="#e5e7eb" font-family="Space Grotesk, Arial" font-size="16">Message Encoding</text>

  <text x="1040" y="178" fill="#e5e7eb" font-family="Space Grotesk, Arial" font-size="16">Sensors</text>
  <text x="1040" y="258" fill="#e5e7eb" font-family="Space Grotesk, Arial" font-size="16">Local Decision</text>
  <text x="1040" y="338" fill="#e5e7eb" font-family="Space Grotesk, Arial" font-size="16">Consensus / Vote</text>

  <line x1="440" y1="250" x2="510" y2="250" stroke="#62f0b7" stroke-width="3"/>
  <line x1="890" y1="250" x2="960" y2="250" stroke="#62f0b7" stroke-width="3"/>
  <text x="610" y="450" fill="#9aa3b2" font-family="Space Grotesk, Arial" font-size="16">Distributed inference + lightweight consensus</text>
</svg>
